<?xml version="1.0" standalone="no"?><svg xmlns="http://www.w3.org/2000/svg" viewBox="0 0 1440 320"><path fill="#00cba9" fill-opacity="1" d="M0,96L26.7,85.3C53.3,75,107,53,160,58.7C213.3,64,267,96,320,128C373.3,160,427,192,480,197.3C533.3,203,587,181,640,144C693.3,107,747,53,800,64C853.3,75,907,149,960,186.7C1013.3,224,1067,224,1120,213.3C1173.3,203,1227,181,1280,149.3C1333.3,117,1387,75,1413,53.3L1440,32L1440,320L1413.3,320C1386.7,320,1333,320,1280,320C1226.7,320,1173,320,1120,320C1066.7,320,1013,320,960,320C906.7,320,853,320,800,320C746.7,320,693,320,640,320C586.7,320,533,320,480,320C426.7,320,373,320,320,320C266.7,320,213,320,160,320C106.7,320,53,320,27,320L0,320Z"></path></svg>